<svg width="34" height="33" viewBox="0 0 34 33" fill="none" xmlns="http://www.w3.org/2000/svg">
<mask id="path-1-outside-1_43_1319" maskUnits="userSpaceOnUse" x="-0.00195312" y="0.000976562" width="34" height="33" fill="black">
<rect fill="white" x="-0.00195312" y="0.000976562" width="34" height="33"/>
<path d="M28.9999 15.1332C28.9846 14.8853 28.9004 14.6466 28.7567 14.444C28.613 14.2414 28.4155 14.083 28.1866 13.9866L25.3199 12.7599L28.3333 11.0266C28.5469 10.9037 28.7223 10.724 28.84 10.5075C28.9577 10.2909 29.013 10.046 28.9999 9.79989C28.9846 9.55197 28.9004 9.31326 28.7567 9.11065C28.613 8.90805 28.4155 8.74962 28.1866 8.65322L17.5199 4.10656C17.3554 4.03688 17.1786 4.00098 16.9999 4.00098C16.8213 4.00098 16.6444 4.03688 16.4799 4.10656L5.81327 8.65322C5.58434 8.74962 5.3869 8.90805 5.2432 9.11065C5.09949 9.31326 5.01524 9.55197 4.99993 9.79989C4.98683 10.046 5.0422 10.2909 5.15988 10.5075C5.27757 10.724 5.45296 10.9037 5.6666 11.0266L8.67993 12.7599L5.81327 13.9866C5.58434 14.083 5.3869 14.2414 5.2432 14.444C5.09949 14.6466 5.01524 14.8853 4.99993 15.1332C4.98683 15.3793 5.0422 15.6242 5.15988 15.8408C5.27757 16.0573 5.45296 16.237 5.6666 16.3599L8.67993 18.0932L5.81327 19.3199C5.58434 19.4163 5.3869 19.5747 5.2432 19.7773C5.09949 19.9799 5.01524 20.2186 4.99993 20.4666C4.98683 20.7127 5.0422 20.9576 5.15988 21.1741C5.27757 21.3907 5.45296 21.5703 5.6666 21.6932L16.3333 27.8266C16.536 27.9436 16.7659 28.0052 16.9999 28.0052C17.234 28.0052 17.4639 27.9436 17.6666 27.8266L28.3333 21.6932C28.5469 21.5703 28.7223 21.3907 28.84 21.1741C28.9577 20.9576 29.013 20.7127 28.9999 20.4666C28.9846 20.2186 28.9004 19.9799 28.7567 19.7773C28.613 19.5747 28.4155 19.4163 28.1866 19.3199L25.3199 18.0932L28.3333 16.3599C28.5469 16.237 28.7223 16.0573 28.84 15.8408C28.9577 15.6242 29.013 15.3793 28.9999 15.1332ZM16.9999 6.78656L24.6799 10.0532L16.9999 14.4666L9.31993 10.0532L16.9999 6.78656ZM16.3333 17.1599C16.536 17.2769 16.7659 17.3385 16.9999 17.3385C17.234 17.3385 17.4639 17.2769 17.6666 17.1599L22.4266 14.4932L24.6799 15.4532L16.9999 19.7999L9.31993 15.3866L11.5733 14.4266L16.3333 17.1599ZM24.6799 20.7199L16.9999 25.1332L9.31993 20.7199L11.5733 19.7599L16.3333 22.4932C16.536 22.6102 16.7659 22.6719 16.9999 22.6719C17.234 22.6719 17.4639 22.6102 17.6666 22.4932L22.4266 19.7599L24.6799 20.7199Z"/>
</mask>
<path d="M28.9999 15.1332C28.9846 14.8853 28.9004 14.6466 28.7567 14.444C28.613 14.2414 28.4155 14.083 28.1866 13.9866L25.3199 12.7599L28.3333 11.0266C28.5469 10.9037 28.7223 10.724 28.84 10.5075C28.9577 10.2909 29.013 10.046 28.9999 9.79989C28.9846 9.55197 28.9004 9.31326 28.7567 9.11065C28.613 8.90805 28.4155 8.74962 28.1866 8.65322L17.5199 4.10656C17.3554 4.03688 17.1786 4.00098 16.9999 4.00098C16.8213 4.00098 16.6444 4.03688 16.4799 4.10656L5.81327 8.65322C5.58434 8.74962 5.3869 8.90805 5.2432 9.11065C5.09949 9.31326 5.01524 9.55197 4.99993 9.79989C4.98683 10.046 5.0422 10.2909 5.15988 10.5075C5.27757 10.724 5.45296 10.9037 5.6666 11.0266L8.67993 12.7599L5.81327 13.9866C5.58434 14.083 5.3869 14.2414 5.2432 14.444C5.09949 14.6466 5.01524 14.8853 4.99993 15.1332C4.98683 15.3793 5.0422 15.6242 5.15988 15.8408C5.27757 16.0573 5.45296 16.237 5.6666 16.3599L8.67993 18.0932L5.81327 19.3199C5.58434 19.4163 5.3869 19.5747 5.2432 19.7773C5.09949 19.9799 5.01524 20.2186 4.99993 20.4666C4.98683 20.7127 5.0422 20.9576 5.15988 21.1741C5.27757 21.3907 5.45296 21.5703 5.6666 21.6932L16.3333 27.8266C16.536 27.9436 16.7659 28.0052 16.9999 28.0052C17.234 28.0052 17.4639 27.9436 17.6666 27.8266L28.3333 21.6932C28.5469 21.5703 28.7223 21.3907 28.84 21.1741C28.9577 20.9576 29.013 20.7127 28.9999 20.4666C28.9846 20.2186 28.9004 19.9799 28.7567 19.7773C28.613 19.5747 28.4155 19.4163 28.1866 19.3199L25.3199 18.0932L28.3333 16.3599C28.5469 16.237 28.7223 16.0573 28.84 15.8408C28.9577 15.6242 29.013 15.3793 28.9999 15.1332ZM16.9999 6.78656L24.6799 10.0532L16.9999 14.4666L9.31993 10.0532L16.9999 6.78656ZM16.3333 17.1599C16.536 17.2769 16.7659 17.3385 16.9999 17.3385C17.234 17.3385 17.4639 17.2769 17.6666 17.1599L22.4266 14.4932L24.6799 15.4532L16.9999 19.7999L9.31993 15.3866L11.5733 14.4266L16.3333 17.1599ZM24.6799 20.7199L16.9999 25.1332L9.31993 20.7199L11.5733 19.7599L16.3333 22.4932C16.536 22.6102 16.7659 22.6719 16.9999 22.6719C17.234 22.6719 17.4639 22.6102 17.6666 22.4932L22.4266 19.7599L24.6799 20.7199Z" fill="white"/>
<path d="M28.9999 15.1332L32.9943 14.9206L32.9934 14.9037L32.9923 14.8868L28.9999 15.1332ZM28.1866 13.9866L26.613 17.664L26.6236 17.6686L26.6342 17.673L28.1866 13.9866ZM25.3199 12.7599L23.3255 9.2926L16.3825 13.2863L23.7463 16.4374L25.3199 12.7599ZM28.3333 11.0266L26.3389 7.5592L26.3388 7.55926L28.3333 11.0266ZM28.9999 9.79989L32.9943 9.58725L32.9934 9.57033L32.9923 9.55342L28.9999 9.79989ZM28.1866 8.65322L26.6181 12.3329L26.6262 12.3363L26.6342 12.3397L28.1866 8.65322ZM17.5199 4.10656L19.0884 0.426881L19.0799 0.423297L17.5199 4.10656ZM16.9999 4.00098V8.00098V4.00098ZM16.4799 4.10656L14.9199 0.423287L14.9115 0.426891L16.4799 4.10656ZM5.81327 8.65322L7.36567 12.3397L7.3737 12.3363L7.38172 12.3329L5.81327 8.65322ZM4.99993 9.79989L1.00753 9.55342L1.00649 9.57033L1.00559 9.58725L4.99993 9.79989ZM5.6666 11.0266L7.66106 7.55926L7.66094 7.5592L5.6666 11.0266ZM8.67993 12.7599L10.2535 16.4374L17.6174 13.2863L10.6744 9.29259L8.67993 12.7599ZM5.81327 13.9866L7.36567 17.673L7.37628 17.6686L7.38688 17.664L5.81327 13.9866ZM4.99993 15.1332L1.00753 14.8868L1.00649 14.9037L1.00559 14.9206L4.99993 15.1332ZM5.6666 16.3599L7.66106 12.8926L7.66094 12.8925L5.6666 16.3599ZM8.67993 18.0932L10.2535 21.7707L17.6174 18.6197L10.6744 14.6259L8.67993 18.0932ZM5.81327 19.3199L7.36567 23.0064L7.37628 23.0019L7.38688 22.9974L5.81327 19.3199ZM4.99993 20.4666L1.00753 20.2201L1.00649 20.237L1.00559 20.2539L4.99993 20.4666ZM5.6666 21.6932L3.67226 25.1606L3.67271 25.1608L5.6666 21.6932ZM16.3333 27.8266L18.3333 24.3624L18.3272 24.3589L16.3333 27.8266ZM17.6666 27.8266L15.6727 24.3589L15.6666 24.3625L17.6666 27.8266ZM28.3333 21.6932L30.3271 25.1608L30.3276 25.1606L28.3333 21.6932ZM28.9999 20.4666L32.9943 20.2539L32.9934 20.237L32.9923 20.2201L28.9999 20.4666ZM28.1866 19.3199L26.613 22.9974L26.6236 23.0019L26.6342 23.0064L28.1866 19.3199ZM25.3199 18.0932L23.3255 14.6259L16.3825 18.6197L23.7463 21.7707L25.3199 18.0932ZM28.3333 16.3599L26.3389 12.8925L26.3388 12.8926L28.3333 16.3599ZM16.9999 6.78656L18.5656 3.10569L16.9999 2.43975L15.4343 3.10569L16.9999 6.78656ZM24.6799 10.0532L26.6729 13.5214L33.6402 9.51762L26.2456 6.37236L24.6799 10.0532ZM16.9999 14.4666L15.007 17.9347L16.9999 19.08L18.9929 17.9347L16.9999 14.4666ZM9.31993 10.0532L7.75429 6.37236L0.359709 9.51762L7.32695 13.5214L9.31993 10.0532ZM16.3333 17.1599L18.3333 13.6958L18.3251 13.6911L16.3333 17.1599ZM17.6666 17.1599L15.7116 13.6702L15.689 13.6828L15.6666 13.6958L17.6666 17.1599ZM22.4266 14.4932L23.9944 10.8133L22.1862 10.0429L20.4716 11.0035L22.4266 14.4932ZM24.6799 15.4532L26.6502 18.9343L33.6961 14.9465L26.2477 11.7733L24.6799 15.4532ZM16.9999 19.7999L15.007 23.268L16.9849 24.4046L18.9702 23.281L16.9999 19.7999ZM9.31993 15.3866L7.75214 11.7066L0.364795 14.8539L7.32695 18.8547L9.31993 15.3866ZM11.5733 14.4266L13.5651 10.9578L11.8379 9.96593L10.0055 10.7466L11.5733 14.4266ZM24.6799 20.7199L26.6729 24.188L33.6351 20.1872L26.2477 17.0399L24.6799 20.7199ZM16.9999 25.1332L15.007 28.6014L16.9999 29.7466L18.9929 28.6014L16.9999 25.1332ZM9.31993 20.7199L7.75214 17.0399L0.364793 20.1872L7.32695 24.188L9.31993 20.7199ZM11.5733 19.7599L13.5651 16.2911L11.8379 15.2993L10.0055 16.0799L11.5733 19.7599ZM16.3333 22.4932L18.3333 19.0291L18.3251 19.0244L16.3333 22.4932ZM17.6666 22.4932L15.6747 19.0244L15.6666 19.0291L17.6666 22.4932ZM22.4266 19.7599L23.9944 16.0799L22.162 15.2993L20.4347 16.2911L22.4266 19.7599ZM32.9923 14.8868C32.9311 13.8951 32.5941 12.9402 32.0193 12.1298L25.4941 16.7582C25.2066 16.3529 25.0381 15.8755 25.0075 15.3797L32.9923 14.8868ZM32.0193 12.1298C31.4444 11.3194 30.6547 10.6857 29.739 10.3001L26.6342 17.673C26.1764 17.4802 25.7815 17.1634 25.4941 16.7582L32.0193 12.1298ZM29.7602 10.3091L26.8935 9.08243L23.7463 16.4374L26.613 17.664L29.7602 10.3091ZM27.3144 16.2272L30.3277 14.4939L26.3388 7.55926L23.3255 9.2926L27.3144 16.2272ZM30.3276 14.4939C31.1821 14.0024 31.8837 13.2837 32.3545 12.4175L25.3255 8.5974C25.5609 8.16432 25.9116 7.80495 26.3389 7.5592L30.3276 14.4939ZM32.3545 12.4175C32.8252 11.5513 33.0467 10.5717 32.9943 9.58725L25.0056 10.0125C24.9794 9.52033 25.0901 9.03049 25.3255 8.5974L32.3545 12.4175ZM32.9923 9.55342C32.9311 8.56176 32.5941 7.60689 32.0193 6.79648L25.4941 11.4248C25.2066 11.0196 25.0381 10.5422 25.0075 10.0464L32.9923 9.55342ZM32.0193 6.79648C31.4444 5.98607 30.6547 5.35235 29.739 4.96675L26.6342 12.3397C26.1764 12.1469 25.7815 11.83 25.4941 11.4248L32.0193 6.79648ZM29.7551 4.97356L19.0884 0.426891L15.9515 7.78622L26.6181 12.3329L29.7551 4.97356ZM19.0799 0.423297C18.4219 0.144592 17.7146 0.000976562 16.9999 0.000976562V8.00098C16.6426 8.00098 16.289 7.92917 15.9599 7.78982L19.0799 0.423297ZM16.9999 0.000976562C16.2853 0.000976562 15.578 0.144592 14.9199 0.423297L18.0399 7.78982C17.7109 7.92917 17.3572 8.00098 16.9999 8.00098V0.000976562ZM14.9115 0.426891L4.24481 4.97356L7.38172 12.3329L18.0484 7.78622L14.9115 0.426891ZM4.26087 4.96675C3.34518 5.35236 2.55541 5.98608 1.98059 6.79648L8.5058 11.4248C8.21839 11.83 7.82351 12.1469 7.36567 12.3397L4.26087 4.96675ZM1.98059 6.79648C1.40577 7.60688 1.06875 8.56174 1.00753 9.55342L8.99233 10.0464C8.96172 10.5422 8.79321 11.0196 8.5058 11.4248L1.98059 6.79648ZM1.00559 9.58725C0.953183 10.5717 1.17464 11.5513 1.64538 12.4175L8.67438 8.5974C8.90975 9.03048 9.02048 9.52032 8.99428 10.0125L1.00559 9.58725ZM1.64538 12.4175C2.11612 13.2837 2.81771 14.0024 3.67226 14.4939L7.66094 7.5592C8.08822 7.80496 8.43901 8.16433 8.67438 8.5974L1.64538 12.4175ZM3.67214 14.4939L6.68547 16.2272L10.6744 9.29259L7.66106 7.55926L3.67214 14.4939ZM7.10632 9.08242L4.23965 10.3091L7.38688 17.664L10.2535 16.4374L7.10632 9.08242ZM4.26087 10.3001C3.34518 10.6857 2.55541 11.3194 1.98059 12.1298L8.5058 16.7582C8.21839 17.1634 7.82351 17.4802 7.36567 17.673L4.26087 10.3001ZM1.98059 12.1298C1.40577 12.9402 1.06875 13.8951 1.00753 14.8868L8.99233 15.3797C8.96172 15.8755 8.79322 16.353 8.5058 16.7582L1.98059 12.1298ZM1.00559 14.9206C0.953183 15.905 1.17465 16.8847 1.64538 17.7508L8.67438 13.9307C8.90975 14.3638 9.02048 14.8537 8.99428 15.3459L1.00559 14.9206ZM1.64538 17.7508C2.11612 18.617 2.8177 19.3357 3.67226 19.8273L7.66094 12.8925C8.08822 13.1383 8.43902 13.4977 8.67438 13.9307L1.64538 17.7508ZM3.67214 19.8272L6.68547 21.5605L10.6744 14.6259L7.66106 12.8926L3.67214 19.8272ZM7.10632 14.4158L4.23965 15.6424L7.38688 22.9974L10.2535 21.7707L7.10632 14.4158ZM4.26087 15.6334C3.34519 16.019 2.55542 16.6527 1.98059 17.4631L8.5058 22.0915C8.21839 22.4967 7.8235 22.8136 7.36567 23.0064L4.26087 15.6334ZM1.98059 17.4631C1.40577 18.2736 1.06875 19.2284 1.00753 20.2201L8.99233 20.713C8.96172 21.2089 8.79322 21.6863 8.5058 22.0915L1.98059 17.4631ZM1.00559 20.2539C0.953183 21.2383 1.17465 22.218 1.64538 23.0842L8.67438 19.2641C8.90975 19.6971 9.02048 20.187 8.99428 20.6792L1.00559 20.2539ZM1.64538 23.0842C2.11612 23.9503 2.8177 24.6691 3.67226 25.1606L7.66094 18.2259C8.08822 18.4716 8.43902 18.831 8.67438 19.2641L1.64538 23.0842ZM3.67271 25.1608L14.3394 31.2942L18.3272 24.3589L7.66048 18.2256L3.67271 25.1608ZM14.3333 31.2907C15.144 31.7588 16.0637 32.0052 16.9999 32.0052V24.0052C17.468 24.0052 17.9279 24.1284 18.3333 24.3625L14.3333 31.2907ZM16.9999 32.0052C17.9361 32.0052 18.8558 31.7588 19.6666 31.2907L15.6666 24.3625C16.072 24.1284 16.5318 24.0052 16.9999 24.0052V32.0052ZM19.6605 31.2942L30.3271 25.1608L26.3394 18.2256L15.6727 24.3589L19.6605 31.2942ZM30.3276 25.1606C31.1822 24.6691 31.8837 23.9503 32.3545 23.0842L25.3255 19.2641C25.5609 18.831 25.9116 18.4716 26.3389 18.2259L30.3276 25.1606ZM32.3545 23.0842C32.8252 22.218 33.0467 21.2383 32.9943 20.2539L25.0056 20.6792C24.9794 20.187 25.0901 19.6972 25.3255 19.2641L32.3545 23.0842ZM32.9923 20.2201C32.9311 19.2284 32.5941 18.2736 32.0193 17.4631L25.4941 22.0915C25.2066 21.6863 25.0381 21.2088 25.0075 20.713L32.9923 20.2201ZM32.0193 17.4631C31.4444 16.6527 30.6547 16.019 29.739 15.6334L26.6342 23.0064C26.1764 22.8136 25.7815 22.4967 25.4941 22.0915L32.0193 17.4631ZM29.7602 15.6424L26.8935 14.4158L23.7463 21.7707L26.613 22.9974L29.7602 15.6424ZM27.3144 21.5605L30.3277 19.8272L26.3388 12.8926L23.3255 14.6259L27.3144 21.5605ZM30.3276 19.8273C31.1822 19.3357 31.8837 18.617 32.3545 17.7508L25.3255 13.9307C25.5609 13.4977 25.9116 13.1383 26.3389 12.8925L30.3276 19.8273ZM32.3545 17.7508C32.8252 16.8847 33.0467 15.905 32.9943 14.9206L25.0056 15.3459C24.9794 14.8537 25.0901 14.3638 25.3255 13.9307L32.3545 17.7508ZM15.4343 10.4674L23.1143 13.7341L26.2456 6.37236L18.5656 3.10569L15.4343 10.4674ZM22.687 6.58508L15.007 10.9984L18.9929 17.9347L26.6729 13.5214L22.687 6.58508ZM18.9929 10.9984L11.3129 6.58508L7.32695 13.5214L15.007 17.9347L18.9929 10.9984ZM10.8856 13.7341L18.5656 10.4674L15.4343 3.10569L7.75429 6.37236L10.8856 13.7341ZM14.3333 20.624C15.144 21.0921 16.0637 21.3385 16.9999 21.3385V13.3385C17.4681 13.3385 17.9279 13.4617 18.3333 13.6958L14.3333 20.624ZM16.9999 21.3385C17.9361 21.3385 18.8558 21.0921 19.6666 20.624L15.6666 13.6958C16.072 13.4617 16.5318 13.3385 16.9999 13.3385V21.3385ZM19.6216 20.6496L24.3816 17.9829L20.4716 11.0035L15.7116 13.6702L19.6216 20.6496ZM20.8588 18.1732L23.1121 19.1332L26.2477 11.7733L23.9944 10.8133L20.8588 18.1732ZM22.7097 11.9721L15.0297 16.3188L18.9702 23.281L26.6502 18.9343L22.7097 11.9721ZM18.9929 16.3317L11.3129 11.9184L7.32695 18.8547L15.007 23.268L18.9929 16.3317ZM10.8877 19.0665L13.1411 18.1065L10.0055 10.7466L7.75214 11.7066L10.8877 19.0665ZM9.58139 17.8953L14.3414 20.6287L18.3251 13.6911L13.5651 10.9578L9.58139 17.8953ZM22.687 17.2517L15.007 21.6651L18.9929 28.6014L26.6729 24.188L22.687 17.2517ZM18.9929 21.6651L11.3129 17.2517L7.32695 24.188L15.007 28.6014L18.9929 21.6651ZM10.8877 24.3998L13.1411 23.4398L10.0055 16.0799L7.75214 17.0399L10.8877 24.3998ZM9.58139 23.2287L14.3414 25.962L18.3251 19.0244L13.5651 16.2911L9.58139 23.2287ZM14.3333 25.9573C15.144 26.4254 16.0637 26.6719 16.9999 26.6719V18.6719C17.468 18.6719 17.9279 18.7951 18.3333 19.0291L14.3333 25.9573ZM16.9999 26.6719C17.9361 26.6719 18.8558 26.4254 19.6666 25.9573L15.6666 19.0291C16.072 18.7951 16.5318 18.6719 16.9999 18.6719V26.6719ZM19.6585 25.962L24.4185 23.2287L20.4347 16.2911L15.6747 19.0244L19.6585 25.962ZM20.8588 23.4398L23.1121 24.3998L26.2477 17.0399L23.9944 16.0799L20.8588 23.4398Z" fill="#1F67F2" mask="url(#path-1-outside-1_43_1319)"/>
</svg>
