<svg width="62" height="60" viewBox="0 0 62 60" fill="none" xmlns="http://www.w3.org/2000/svg">
<path d="M56.9949 28.1889L56.9941 28.1741L56.9932 28.1593C56.9243 27.0436 56.5452 25.9694 55.8985 25.0577C55.4656 24.4473 54.9243 23.9261 54.3046 23.518C55.1261 22.9767 55.8036 22.2405 56.2752 21.3729C56.8047 20.3985 57.0539 19.2963 56.9949 18.1889L56.9941 18.1741L56.9932 18.1593C56.9243 17.0436 56.5452 15.9694 55.8985 15.0577C55.2537 14.1486 54.3684 13.4371 53.342 13.003C53.3391 13.0017 53.3361 13.0005 53.3332 12.9993L33.3473 4.4802L33.3399 4.47706C32.5996 4.16352 31.8038 4.00195 30.9999 4.00195C30.1959 4.00195 29.4002 4.16352 28.6599 4.47706L28.6525 4.48021L8.65793 13.0029C7.63143 13.437 6.74609 14.1485 6.10121 15.0577C5.45454 15.9694 5.0754 17.0436 5.00652 18.1593L5.00561 18.1741L5.00482 18.1889C4.94587 19.2963 5.19501 20.3985 5.72459 21.3729C6.19614 22.2405 6.8736 22.9767 7.6951 23.518C7.07546 23.9261 6.53414 24.4473 6.10121 25.0577C5.45454 25.9694 5.0754 27.0436 5.00652 28.1593L5.00561 28.1741L5.00482 28.1889C4.94587 29.2963 5.19501 30.3985 5.72459 31.3729C6.19614 32.2405 6.87359 32.9767 7.6951 33.518C7.07546 33.9261 6.53415 34.4473 6.10121 35.0577C5.45454 35.9694 5.0754 37.0436 5.00652 38.1593L5.00561 38.1741L5.00482 38.1889C4.94587 39.2963 5.19501 40.3985 5.72459 41.3729C6.25417 42.3473 7.04345 43.1559 8.00482 43.7089L8.00522 43.7091L27.9999 55.206C28.0009 55.2066 28.0019 55.2072 28.0029 55.2078C28.9143 55.7332 29.9478 56.0099 30.9999 56.0099C32.0522 56.0099 33.0859 55.7331 33.9975 55.2074C33.9983 55.2069 33.9991 55.2065 33.9999 55.206L53.9945 43.7091L53.9949 43.7089C54.9563 43.1559 55.7456 42.3473 56.2752 41.3729C56.8047 40.3985 57.0539 39.2963 56.9949 38.1889L56.9941 38.1741L56.9932 38.1593C56.9243 37.0436 56.5452 35.9694 55.8985 35.0577C55.4656 34.4473 54.9243 33.9261 54.3046 33.518C55.1261 32.9767 55.8036 32.2405 56.2752 31.3729C56.8047 30.3985 57.0539 29.2963 56.9949 28.1889ZM30.0247 7.69956L30.0249 7.69992L30.0247 7.69956ZM30.9999 23.0882L24.4401 19.3186L30.9999 16.5284L37.5597 19.3186L30.9999 23.0882Z" fill="white" stroke="#1F67F2" stroke-width="7"/>
</svg>
