<svg width="1440" height="1024" viewBox="0 0 1440 1024" fill="none" xmlns="http://www.w3.org/2000/svg">
<g opacity="0.11">
<path d="M161.872 -0.467409L161.786 -0.5H161.695H0H-0.5V0V20.0151V20.7077L0.157414 20.4896C10.6398 17.0127 19.5092 15.1596 29.1332 15.1596C62.9093 15.1596 92.9139 21.7393 125.526 33.3348C138.072 37.7955 149.429 42.4929 161.59 47.5233L161.59 47.5234L161.592 47.5241L161.599 47.5269C168.028 50.1863 174.682 52.9384 181.851 55.7959C201.609 63.6711 223.449 71.526 248.544 76.6919C275.291 82.1976 308.657 81.2697 337.525 74.2215C351.908 70.7096 366.689 65.2561 379.156 57.4539C391.621 49.6522 401.8 39.4832 406.922 26.5322L406.457 26.3483L406.922 26.5322C410.347 17.8711 411.155 8.80498 410.191 -0.0540538L410.143 -0.5H409.694H351.789H351.185L351.298 0.0938485C352.435 6.04224 352.078 11.1949 350.544 15.0748C347.549 22.6463 337.372 29.9221 318.582 34.5101C299.931 39.064 278.872 39.2724 264.762 36.3677C246.035 32.5128 228.752 26.4576 210.384 19.1367C204.902 16.9518 199.092 14.5519 193.055 12.0585L193.053 12.0577L193.05 12.0566L193.049 12.0558L193.045 12.0544L193.041 12.0525L193.04 12.0522C183.102 7.94715 172.552 3.58991 161.872 -0.467409Z" stroke="#4763E4"/>
<path d="M584.712 -0.5H583.52L584.355 0.350282C591.752 7.88483 599.684 14.5343 607.027 19.9973C621.314 30.6276 638.685 35.0407 656.383 34.7482C672.478 34.4824 687.361 30.3607 699.01 26.3959L698.849 25.9226L699.01 26.3959C707.47 23.5163 716.419 19.9019 724.029 16.8278C724.029 16.8278 724.029 16.8278 724.029 16.8277L724.443 16.6607C727.001 15.6285 729.4 14.6605 731.573 13.8054C741.719 9.81497 748.103 7.7836 752.36 7.107L752.293 6.68227L752.36 7.10699C766.645 4.83574 782.856 3.66314 796.22 5.197C809.165 6.68289 815.477 10.0748 818.682 14.6746C841.188 46.9851 877.983 81.7543 937.358 93.7873C980.655 102.562 1020.97 90.9884 1050.63 78.3528C1064.77 72.3343 1076.44 65.5661 1086.66 59.4038L1086.4 58.978L1086.66 59.4037C1088.71 58.1691 1090.67 56.9731 1092.59 55.8105L1092.59 55.8074L1092.61 55.7942C1092.61 55.7936 1092.61 55.7929 1092.62 55.7922C1100.61 50.927 1107.65 46.6526 1115.58 42.5658L1138.91 30.5573L1139.53 30.2408L1139.04 29.7561L1108.38 -0.356676L1108.24 -0.5H1108.03H1098.95H1098.83L1098.72 -0.44457L1081.35 8.49679C1071.29 13.6738 1062.09 19.2801 1053.98 24.2159L1053.66 24.4121C1052.02 25.4092 1050.43 26.3779 1048.89 27.31C1039.21 33.148 1030.51 38.0935 1020.65 42.293C995.75 52.8963 973.287 57.4577 953.342 53.4158C919.014 46.4586 893.141 26.0141 873.82 -0.295941L873.671 -0.5H873.417H584.712Z" stroke="#4763E4"/>
<path d="M1216.52 -0.5H1215.58L1216.11 0.279506C1222.88 10.324 1232.1 19.6138 1244.11 27.5625C1263.37 40.3136 1292.62 44.4667 1315.32 45.5474C1339.22 46.6848 1365.13 44.8212 1383.78 40.1509C1398.22 36.5359 1412.42 30.9899 1423.66 26.6035L1423.69 26.5898L1423.69 26.5898C1427.31 25.177 1430.61 23.8859 1433.52 22.8169C1435.82 21.9747 1438.02 21.1983 1440.16 20.4893L1440.5 20.3757V20.0148V0V-0.5H1440H1368.4H1368.33L1368.27 -0.481257C1367.01 -0.126306 1365.72 0.216036 1364.41 0.545985C1355.18 2.85718 1337.6 4.55504 1319.22 3.67998C1306.3 3.06497 1296.72 1.35904 1290.58 -0.478999L1290.51 -0.5H1290.43H1216.52Z" stroke="#4763E4"/>
<path d="M1440.5 109.172V109.497V184.416V184.814L1440.11 184.903L1436.39 185.763L1435.99 185.855L1435.82 185.484L1426.92 166.007L1426.92 166.006C1426.32 164.685 1425.78 163.475 1425.28 162.351L1425.24 162.254V162.25C1423.65 158.699 1422.45 156.011 1420.72 153.252C1418.63 149.911 1416.93 148.558 1415.91 147.987L1416.11 147.622L1415.91 147.987C1399.11 138.586 1370.79 132.091 1347.23 133.932C1334.08 134.96 1318.58 141.097 1304.96 151.018C1298.03 156.071 1292.77 161.238 1289.09 165.845C1285.41 170.463 1283.36 174.482 1282.8 177.233C1278.82 196.601 1287.18 219.069 1308.73 230.859C1322.15 238.2 1340.83 242.707 1365.73 247.423C1365.73 247.423 1365.73 247.423 1365.73 247.423L1365.64 247.915C1369.07 248.564 1372.65 249.223 1376.35 249.901C1396.3 253.565 1419.49 257.827 1440 264.682L1440.5 109.172ZM1440.5 109.172L1440.2 109.041C1412.59 96.7786 1375.3 89.5283 1340.86 92.2202C1309.65 94.6596 1282.39 107.587 1263.15 121.604C1244.2 135.416 1228.39 153.688 1224.82 171.118C1218.82 200.363 1229.53 240.35 1273.13 264.201L1273.37 263.762M1440.5 109.172L1273.37 263.762M1273.37 263.762L1273.13 264.201C1296.84 277.175 1326.12 283.325 1350.72 287.986C1354.57 288.715 1358.31 289.409 1361.95 290.084L1363.11 290.3L1363.16 290.309H1363.17L1273.37 263.762Z" stroke="#4763E4"/>
<path d="M1440.5 361.947V360.756L1439.65 361.59C1433.18 367.94 1423.96 374.367 1412.45 379.455C1393.37 387.895 1371.26 391.249 1349.56 386.32L1349.56 386.32C1341.13 384.406 1335.51 381.816 1331.72 378.8C1327.95 375.793 1325.96 372.341 1324.81 368.644C1322.02 359.627 1324.3 347.813 1329.79 336.564L1329.35 336.349L1329.79 336.564L1339.22 317.213L1339.49 316.656L1338.89 316.508L1284.47 303.094L1284.08 302.997L1283.9 303.36L1274.47 322.712C1267.15 337.73 1261.51 358.08 1267.6 377.748L1268.03 377.615L1267.6 377.748C1274.22 399.094 1294.26 417.784 1331.81 426.314C1371.89 435.417 1410.4 428.969 1440.19 416.48L1440.5 416.351V416.018V361.947Z" stroke="#4763E4"/>
<path d="M1439.5 838.175C1435.24 837.786 1431.1 837.289 1427.11 836.702C1415.32 834.957 1402.6 832.051 1392.71 827.392C1365.51 814.586 1336.67 799.281 1315.36 774.853C1294.12 750.514 1282.03 719.147 1281.76 675.856C1276.08 649.044 1258.51 632.08 1231.47 624.112C1215.96 619.542 1200.08 616.196 1183.94 614.132C1179.04 613.502 1174.04 612.965 1168.56 612.375L1168.52 612.37L1439.5 838.175ZM1439.5 838.175V838.22H1440M1439.5 838.175L1440 838.22M1440 838.22L1440.04 837.722C1440.03 837.72 1440.01 837.719 1440 837.718M1440 838.22V837.718M1440 837.718V796.764C1439.61 796.711 1439.23 796.656 1438.84 796.598C1430.31 795.337 1425.68 793.792 1424.5 793.237C1399.04 781.25 1378.85 769.931 1364.3 753.258C1349.92 736.776 1339.35 713.005 1339.35 674.363V672.95L1339.08 671.551C1331.62 633.278 1304.27 601.227 1253.52 586.273C1234.34 580.62 1214.49 576.422 1194.15 573.819C1188.4 573.084 1182.57 572.456 1177.18 571.876L1177.13 571.871L1440 837.718ZM1440.5 636.533V636.391L1440.43 636.27C1435.81 628.786 1432.81 620.255 1432.81 613.548C1432.81 610.635 1433.44 607.453 1434.58 602.757C1434.65 602.502 1434.71 602.239 1434.78 601.97C1434.83 601.778 1434.87 601.584 1434.92 601.387C1434.92 601.387 1434.92 601.387 1434.92 601.387L1434.98 601.181L1434.98 601.18L1434.98 601.154C1436 597.077 1437.34 591.689 1437.84 586.179C1439.84 564.393 1435.87 542.38 1416.52 521.929L1416.19 522.245L1416.52 521.929C1405.3 510.073 1387.62 495.527 1360.83 490.384C1340.41 486.464 1317.74 488.637 1303.75 489.978L1303.75 489.978L1303.73 489.98L1303.71 489.98L1303.7 489.981L1303.69 489.982C1302.19 490.127 1300.78 490.262 1299.49 490.377L1299.49 490.377C1280.57 492.081 1264.81 492.038 1249.8 488.882L1249.69 489.372L1249.8 488.882C1234.96 485.766 1223.87 478.879 1218.61 466.987L1218.15 467.19L1218.61 466.987C1209.14 445.59 1184.5 417.61 1141.83 413.587L1141.83 413.587C1111.28 410.711 1082.92 421.785 1063.92 435.307C1044.61 449.057 1029.43 469.108 1029.43 490.828C1029.43 513.499 1039.97 537.185 1052.84 555.922C1059.38 565.442 1066.92 574.275 1074.85 581.584C1082.3 588.467 1091.85 595.654 1103.02 599.894L1103.2 599.427L1103.02 599.894C1117.82 605.505 1133.02 608.382 1146.62 610.279L1146.69 609.784L1146.62 610.279C1153.42 611.226 1160.16 611.97 1166.33 612.636L1168.47 612.867L1168.47 612.867L1168.5 612.871C1173.99 613.462 1178.98 613.999 1183.88 614.628L1183.94 614.169L1183.88 614.628C1199.99 616.689 1215.84 620.03 1231.33 624.591C1258.2 632.51 1275.62 649.33 1281.26 675.91C1281.54 719.276 1293.66 750.749 1314.98 775.181C1336.37 799.695 1365.29 815.036 1392.49 827.844C1402.46 832.534 1415.23 835.449 1427.04 837.197L1427.04 837.197C1431.19 837.809 1435.51 838.322 1439.96 838.718L1440.5 838.766V838.22V796.764V796.328L1440.07 796.269C1439.68 796.216 1439.3 796.161 1438.92 796.104L1438.92 796.104C1430.4 794.845 1425.83 793.309 1424.72 792.785C1399.26 780.8 1379.15 769.518 1364.68 752.93C1350.39 736.552 1339.85 712.903 1339.85 674.363V672.95V672.902L1339.84 672.855L1339.57 671.456L1339.57 671.456C1332.07 632.979 1304.57 600.794 1253.66 585.793C1234.45 580.133 1214.58 575.929 1194.21 573.323C1188.46 572.587 1182.63 571.96 1177.24 571.38L1177.19 571.374L1175.08 571.147C1168.93 570.481 1163.29 569.853 1157.83 569.092C1146.95 567.576 1138.11 565.697 1130.56 562.846L1130.53 562.824L1130.48 562.813C1130.28 562.717 1129.36 562.281 1127.79 561.221C1125.96 559.978 1123.7 558.206 1121.15 555.853L1121.15 555.853C1116.04 551.131 1110.51 544.789 1105.42 537.376C1095.02 522.241 1088.03 505.02 1088.03 490.828C1088.03 482.891 1094.12 472.992 1105.25 465.072C1116.7 456.923 1127.97 454.606 1134.17 455.189C1142.82 456.004 1155.79 463.951 1162.75 479.684C1174.3 505.793 1201.03 522.37 1233.27 529.144L1233.36 528.74L1233.27 529.144C1259.23 534.595 1284.07 534.057 1306.81 532.009L1308.8 531.831L1308.8 531.831C1326.14 530.265 1337.13 529.279 1345.64 530.913L1345.73 530.422L1345.64 530.913C1351.77 532.09 1359.3 536.281 1368.01 545.482C1377.61 555.631 1380.85 567.28 1379.37 583.432C1379.09 586.461 1378.36 589.444 1377.28 593.796L1377.28 593.797C1377.15 594.338 1377.01 594.903 1376.87 595.488L1376.87 595.489C1375.69 600.29 1374.21 606.64 1374.21 613.548C1374.21 628.168 1380.33 643.103 1387.64 654.54L1388.06 654.27L1387.64 654.54C1398.16 671.011 1420 682.018 1435.79 687.45C1437.12 687.907 1438.46 688.416 1439.81 688.969L1440.5 689.252V688.507V636.533ZM1130.34 563.169L1130.29 563.276C1130.24 563.25 1130.1 563.185 1129.87 563.068C1129.9 563.002 1129.95 562.944 1130.01 562.897C1130.11 562.821 1130.2 562.801 1130.24 562.795C1130.33 562.782 1130.39 562.795 1130.41 562.797C1130.41 562.798 1130.42 562.8 1130.43 562.801L1130.34 563.169Z" stroke="#4763E4"/>
<path d="M1440.5 888.869V888.487L1440.13 888.386C1434.54 886.864 1428.24 884.915 1420.98 882.47C1403.65 876.631 1380.71 869.792 1356.39 866.458C1332.23 863.143 1303.42 862.845 1277.06 872.939L1277.24 873.406L1277.06 872.939C1234 889.43 1209.47 923.294 1202.92 956.107C1198.45 978.449 1201.78 1003.03 1216.1 1024.28L1216.25 1024.5H1216.52H1290.41L1290.55 1023.52C1287.41 1022.58 1285.2 1021.61 1283.91 1020.76C1264.81 1008.11 1256.15 985.937 1260.93 962.064L1260.49 961.976L1260.93 962.064C1265.72 938.084 1282.89 918.297 1304.73 909.939L1304.55 909.478L1304.73 909.939C1314.59 906.159 1328.04 905.293 1345.35 907.667L1345.42 907.172L1345.35 907.667C1362.5 910.018 1380.24 915.123 1396 920.433C1410.94 925.466 1425.29 929.711 1439.91 932.283L1440.5 932.386V931.791V888.869Z" stroke="#4763E4"/>
<path d="M1440.5 1000.47V999.865L1439.91 999.978C1427.34 1002.36 1416.35 1005.97 1406.74 1009.5C1401.16 1011.54 1396.33 1013.43 1391.89 1015.16L1391.66 1015.26L1391.66 1015.26L1391.65 1015.26C1383.22 1018.55 1376.22 1021.29 1368.3 1023.52L1368.43 1024.5H1440H1440.5V1024V1000.47Z" stroke="#4763E4"/>
<path d="M1108.03 1024.5H1109.25L1108.38 1023.64L1105.26 1020.58L1105 1020.33L1104.68 1020.49L1098.73 1023.56L1098.96 1024.5H1108.03Z" stroke="#4763E4"/>
<path d="M873.415 1024.5H874.403L873.818 1023.7C872.902 1022.46 872.003 1021.2 871.118 1019.93L870.718 1020.21L871.118 1019.93C856.559 999.03 829.522 990.529 805.512 987.772C781.914 985.063 757.557 987.302 739.632 990.152C726.317 992.269 713.359 997.092 703.329 1001.04C699.995 1002.35 696.898 1003.6 693.951 1004.79L693.386 1005.02L693.377 1005.02L693.363 1005.03L693.356 1005.03L693.346 1005.03L693.331 1005.04C686.414 1007.83 680.302 1010.3 673.819 1012.51C664.57 1015.66 658.672 1016.74 655.03 1016.8C653.98 1016.82 653.152 1016.79 652.288 1016.54C651.425 1016.29 650.493 1015.81 649.266 1014.9L649.266 1014.9C639.531 1007.66 630.829 999.495 624.481 991.337C618.123 983.168 614.17 975.058 613.839 967.913L613.839 967.912C613.635 963.587 614.552 959.135 616.208 952.809L616.208 952.808C616.374 952.169 616.552 951.501 616.739 950.807L616.746 950.782L616.749 950.763C618.236 945.192 620.169 937.931 620.638 930.304C621.773 911.863 617.394 894.623 611.133 878.533C611.133 878.533 611.133 878.533 611.133 878.533L603.455 858.795L603.303 858.405L602.892 858.485L547.377 869.407L546.791 869.523L547.008 870.079L554.686 889.818L554.686 889.818C559.968 903.388 562.863 915.952 562.095 928.452L562.095 928.453C561.825 932.858 560.719 937.061 559.154 943.007L559.152 943.015L559.15 943.022L559.147 943.033L559.144 943.043C558.99 943.621 558.834 944.217 558.674 944.828L558.614 945.058L558.614 945.058C556.911 951.563 554.836 959.979 555.269 969.315L555.269 969.315C556.219 989.701 569.197 1008.92 584.349 1024.35L584.496 1024.5H584.706H873.415Z" stroke="#4763E4"/>
<path d="M409.692 1024.5H410.249L410.189 1023.95C409.266 1015.49 406.729 1007.22 403.304 999.656C396.236 984.041 384.165 968.694 368.829 957.789C361.799 952.789 352.648 947.195 344.772 942.383C340.542 939.797 336.681 937.435 333.707 935.508L333.458 935.893L333.707 935.508C323.346 928.8 316.117 922.975 311.622 916.582C309.706 913.857 308.893 910.319 308.888 902.746C308.888 901.933 308.902 901.034 308.918 900.053L308.922 899.781V899.781L308.922 899.778C309.034 893.201 309.203 883.286 305.864 873.792C301.811 862.255 292.255 850.078 281.403 840.209L281.066 840.579L281.403 840.209C270.792 830.565 255.638 820.114 237.725 815.192L237.593 815.674L237.725 815.192C217.496 809.635 196.025 812.589 180.56 816.611C164.471 820.794 148.916 827.657 138.079 835.363C129.323 841.588 120.112 849.472 112.059 856.364L112.027 856.391L112.027 856.391C108.12 859.737 104.487 862.845 101.306 865.424L101.621 865.813L101.306 865.424C89.994 874.597 80.2059 880.959 69.6509 884.612C49.7479 891.497 37.3684 893.286 26.6625 892.928C19.1713 892.676 10.9741 891.335 0.131288 888.385L-0.5 888.213V888.867V931.791V932.211L-0.0865056 932.284C7.79187 933.668 15.7483 934.567 23.9167 934.841C47.8938 935.646 70.3068 930.992 95.1758 922.388C116.472 915.021 132.517 903.525 145.24 893.21C150.824 888.683 155.484 884.669 159.784 880.964C166.484 875.191 172.301 870.18 179.388 865.141L179.127 864.775L179.388 865.141C183.503 862.214 191.517 858.408 200.595 856.046C210.294 853.524 215.588 854.058 216.701 854.363C220.433 855.388 227.641 859.167 235.361 866.185C242.836 872.982 247.581 879.904 249.041 884.056C250.372 887.843 250.353 891.556 250.307 898.254L250.307 898.256L250.307 898.257V898.259L250.306 898.366C250.297 899.707 250.287 901.166 250.288 902.763C250.293 911.117 250.733 923.312 259.285 935.474C268.621 948.752 282.142 958.707 294.378 966.632C300.308 970.472 305.279 973.479 309.821 976.226L309.917 976.284C316.116 980.032 321.521 983.302 327.518 987.566C334.974 992.868 342.763 1002.01 347.564 1012.62L348.004 1012.42L347.564 1012.62C349.389 1016.65 350.615 1020.51 351.298 1024.09L351.376 1024.5H351.789H409.692Z" stroke="#4763E4"/>
<path d="M161.674 1024.5L161.851 1023.53C158.45 1022.24 155.034 1020.98 151.621 1019.76C113.746 1006.3 74.6821 997.208 29.1332 997.208C18.5478 997.208 8.8299 998.285 -0.0931917 999.978L-0.5 1000.05V1000.47V1024V1024.5H0H161.674Z" stroke="#4763E4"/>
<path d="M-0.5 838.22V838.677L-0.0445728 838.718C8.78303 839.508 18.0681 839.844 27.312 839.615C41.0482 839.276 56.0093 837.657 69.6638 833.717C83.3274 829.776 97.7424 822.863 106.28 811.155C124.037 786.805 122.49 766.12 120.918 745.099L120.916 745.078L120.916 745.078L120.91 745.003C118.522 713.073 99.0739 692.192 69.8548 674.605L69.8545 674.604C68.9443 674.057 67.9975 673.484 67.0154 672.888C66.8127 672.766 66.6085 672.642 66.4029 672.517C66.4013 672.516 66.3996 672.515 66.398 672.514L66.395 672.513L66.3683 672.496C54.7503 665.45 38.4653 655.572 21.2076 649.634L21.2076 649.634C16.417 647.986 11.9709 645.832 8.40233 643.586C4.81972 641.331 2.1704 639.012 0.918674 637.054L0.918526 637.054C0.752328 636.794 0.587806 636.532 0.424941 636.269L-0.5 634.778V636.533V688.507V688.842L-0.189902 688.969C8.75099 692.64 18.2377 698.356 29.6421 705.229L29.644 705.23L29.6861 705.255C29.6863 705.255 29.6865 705.255 29.6867 705.256C30.4897 705.741 31.3019 706.23 32.1243 706.724C41.9928 712.664 49.2209 718.329 54.1513 724.735C59.072 731.128 61.7237 738.286 62.3942 747.252C63.1801 757.757 63.5854 765.542 62.5851 772.373C61.5885 779.179 59.1932 785.052 54.3386 791.709C54.2553 791.823 53.1627 793.235 47.7314 794.801L47.7313 794.801C42.2857 796.373 34.5507 797.451 25.2844 797.681C16.6128 797.896 7.74866 797.336 0.0688364 796.269L-0.5 796.19V796.764V838.22Z" stroke="#4763E4"/>
<path d="M-0.5 416.016V416.769L0.193874 416.477C1.22867 416.042 2.25303 415.601 3.26665 415.153L3.26684 415.153C32.8028 402.092 56.474 381.742 65.24 360.675C72.6789 342.796 72.0415 323.798 61.2295 306.404C50.3985 288.977 30.3774 274.792 3.03392 265.195C2.08171 264.86 1.12303 264.532 0.158476 264.209L-0.5 263.989V264.684V314.272V314.51L-0.315023 314.66C3.26906 317.568 5.8722 320.554 7.69714 323.49C12.1948 330.725 12.985 339.293 9.08381 348.668L9.08379 348.668C7.45894 352.575 4.26596 357.051 -0.350337 361.584L-0.5 361.731V361.941V416.016Z" stroke="#4763E4"/>
<path d="M-0.5 184.415V185.044L0.11257 184.902L51.1652 173.105L51.7619 172.967L51.5074 172.41L42.6068 152.933C42.6068 152.933 42.6068 152.933 42.6067 152.933C42.3188 152.302 41.9923 151.563 41.6271 150.736C41.6269 150.736 41.6266 150.735 41.6264 150.735L41.6253 150.732L41.6221 150.725C39.9372 146.909 37.4411 141.257 34.1814 136.053L33.8261 136.276L34.1814 136.053C30.0122 129.398 23.3946 121.298 12.0208 114.93C8.32961 112.864 4.37587 110.896 0.202918 109.043L-0.5 108.731V109.5V184.415Z" stroke="#4763E4"/>
<mask id="path-16-outside-1_322_5720" maskUnits="userSpaceOnUse" x="176.235" y="249.143" width="845" height="423" fill="black">
<rect fill="white" x="176.235" y="249.143" width="845" height="423"/>
<path d="M559.014 294.316C564.42 291.84 575.729 291.103 593.032 293.882C622.679 298.641 636.425 309.655 638.058 320.774C639.683 331.809 639.55 343.003 639.4 355.602L639.386 356.848C639.239 369.537 639.135 383.648 641.673 397.99C645.471 419.475 652.997 452.979 704.163 467.966C715.686 471.343 731.756 473.674 746.433 474.728C760.438 475.736 778.864 476.025 793.466 472.574C822.571 465.69 835.946 448.776 842.748 435.165C846.176 428.308 848.416 421.376 850.136 415.619C850.654 413.876 851.115 412.295 851.535 410.841C852.644 407.023 853.499 404.076 854.539 401.373C859.648 388.051 869.504 369.07 883.866 356.606C890.824 350.564 897.342 347.378 903.041 346.124C907.952 345.045 915.198 344.725 926.516 348.696C944.951 355.168 955.63 366.682 959.763 380.916C964.022 395.581 960.817 412.019 952.318 424.898C925.96 464.83 862.211 486.15 783.968 497.439C751.784 502.083 719.839 504.684 686.54 507.394H686.537C670.467 508.703 654.083 510.036 637.203 511.637C610.644 514.156 579.545 517.593 550.561 524.45C521.64 531.29 492.134 542.142 471.168 560.779C456.071 574.202 448.819 589.99 452.82 606.648C456.656 622.614 470.1 636.316 487.509 647.539C504.53 658.512 529.085 663.847 552.064 666.718C576.06 669.716 603.279 670.593 629.891 670.257C682.897 669.589 737.798 664.031 767.73 658.477C809.732 650.684 934.393 631.988 976.329 628.605L1004.94 626.297L998.453 585.599L969.837 587.907C923.979 591.606 796.317 610.843 753.189 618.844C728.435 623.436 678.171 628.683 628.868 629.305C604.322 629.615 581.098 628.758 562.032 626.377C541.947 623.868 530.816 620.171 526.199 617.195C514.567 609.696 510.538 603.666 509.599 599.751C508.824 596.527 509.495 592.279 516.148 586.367C527.423 576.342 545.23 568.877 568.74 563.317C592.186 557.771 618.644 554.721 644.82 552.237C659.396 550.855 674.545 549.618 689.999 548.356H690.008H690.013C724.64 545.53 760.792 542.579 795.421 537.581C877.098 525.795 965.73 500.98 1004.46 442.3C1018 421.792 1023.07 396.364 1016.17 372.629C1009.15 348.461 989.248 325.038 952.01 311.968C929.35 304.013 906.9 302.408 886.038 306.989C865.964 311.4 850.631 320.821 839.313 330.645C817.114 349.911 804.692 375.679 798.97 390.59C797.412 394.652 796.026 399.432 794.808 403.63L794.805 403.644C794.454 404.861 794.114 406.028 793.788 407.116C792.179 412.514 790.569 417.257 788.475 421.448C784.23 429.939 779.864 432.626 775.29 433.705C772.802 434.295 764.582 434.866 752.227 433.977C740.54 433.135 730.532 431.393 726.1 430.094C707.771 424.724 702.657 414.57 698.82 392.878C696.83 381.622 696.833 370.106 696.983 357.185L697.009 355.205C697.153 343.21 697.317 329.912 695.347 316.514C690.083 280.713 647.721 260.669 605.719 253.927C586.385 250.823 554.276 247.765 527.82 259.883C499.527 272.843 482.532 292.487 474.348 311.83C462.603 339.585 453.871 366.326 446.328 394.318C442.25 409.448 437.535 424.671 432.118 439.501C431.775 440.441 431.418 441.493 431.104 442.409L430.923 442.945C430.54 444.06 430.177 445.104 429.785 446.142C429.437 447.066 429.091 447.914 428.748 448.684L428.682 448.637C424.181 445.518 420.192 440.658 418.164 437.115C410.844 424.315 408.099 410.489 404.752 393.634C404.372 391.731 403.989 389.79 403.589 387.807C399.868 369.394 394.811 347.677 378.737 327.53C364.542 309.735 337.038 287.756 292.562 287.756C263.909 287.756 241.848 298.59 226.947 309.801C211.995 321.053 201.568 334.576 195.402 345.098C173.349 382.726 177.572 423.864 181.013 457.372L181.013 457.374C181.211 459.303 181.406 461.207 181.594 463.083C185.667 503.808 207.237 543.07 226.372 577.902L226.374 577.907C227.991 580.85 229.591 583.762 231.161 586.641L241.577 605.735L295.278 590.922L284.863 571.828C283.464 569.264 282.067 566.714 280.678 564.175C260.882 528.023 242.472 494.403 239.049 460.177L238.797 457.662C235.16 421.407 231.934 389.241 248.57 360.853C252.932 353.411 260.002 344.564 268.811 337.936C277.67 331.268 285.634 328.716 292.562 328.716C306.613 328.716 318.77 335.37 328.637 347.742C338.818 360.503 342.858 375.243 346.573 393.632C346.956 395.53 347.337 397.482 347.728 399.479C350.882 415.625 354.612 434.717 364.807 452.546C368.868 459.645 376.718 469.813 388.466 477.962C400.268 486.146 420.538 495.057 446.152 490.303C466.862 486.461 476.332 474.143 480.387 467.38C483.958 461.429 486.268 454.543 487.377 451.236C487.584 450.623 487.748 450.134 487.872 449.794C493.644 433.981 498.623 417.886 502.897 402.026C510.16 375.079 518.455 349.747 529.505 323.633C534.591 311.613 544.496 300.968 559.014 294.316Z"/>
</mask>
<path d="M559.014 294.316C564.42 291.84 575.729 291.103 593.032 293.882C622.679 298.641 636.425 309.655 638.058 320.774C639.683 331.809 639.55 343.003 639.4 355.602L639.386 356.848C639.239 369.537 639.135 383.648 641.673 397.99C645.471 419.475 652.997 452.979 704.163 467.966C715.686 471.343 731.756 473.674 746.433 474.728C760.438 475.736 778.864 476.025 793.466 472.574C822.571 465.69 835.946 448.776 842.748 435.165C846.176 428.308 848.416 421.376 850.136 415.619C850.654 413.876 851.115 412.295 851.535 410.841C852.644 407.023 853.499 404.076 854.539 401.373C859.648 388.051 869.504 369.07 883.866 356.606C890.824 350.564 897.342 347.378 903.041 346.124C907.952 345.045 915.198 344.725 926.516 348.696C944.951 355.168 955.63 366.682 959.763 380.916C964.022 395.581 960.817 412.019 952.318 424.898C925.96 464.83 862.211 486.15 783.968 497.439C751.784 502.083 719.839 504.684 686.54 507.394H686.537C670.467 508.703 654.083 510.036 637.203 511.637C610.644 514.156 579.545 517.593 550.561 524.45C521.64 531.29 492.134 542.142 471.168 560.779C456.071 574.202 448.819 589.99 452.82 606.648C456.656 622.614 470.1 636.316 487.509 647.539C504.53 658.512 529.085 663.847 552.064 666.718C576.06 669.716 603.279 670.593 629.891 670.257C682.897 669.589 737.798 664.031 767.73 658.477C809.732 650.684 934.393 631.988 976.329 628.605L1004.94 626.297L998.453 585.599L969.837 587.907C923.979 591.606 796.317 610.843 753.189 618.844C728.435 623.436 678.171 628.683 628.868 629.305C604.322 629.615 581.098 628.758 562.032 626.377C541.947 623.868 530.816 620.171 526.199 617.195C514.567 609.696 510.538 603.666 509.599 599.751C508.824 596.527 509.495 592.279 516.148 586.367C527.423 576.342 545.23 568.877 568.74 563.317C592.186 557.771 618.644 554.721 644.82 552.237C659.396 550.855 674.545 549.618 689.999 548.356H690.008H690.013C724.64 545.53 760.792 542.579 795.421 537.581C877.098 525.795 965.73 500.98 1004.46 442.3C1018 421.792 1023.07 396.364 1016.17 372.629C1009.15 348.461 989.248 325.038 952.01 311.968C929.35 304.013 906.9 302.408 886.038 306.989C865.964 311.4 850.631 320.821 839.313 330.645C817.114 349.911 804.692 375.679 798.97 390.59C797.412 394.652 796.026 399.432 794.808 403.63L794.805 403.644C794.454 404.861 794.114 406.028 793.788 407.116C792.179 412.514 790.569 417.257 788.475 421.448C784.23 429.939 779.864 432.626 775.29 433.705C772.802 434.295 764.582 434.866 752.227 433.977C740.54 433.135 730.532 431.393 726.1 430.094C707.771 424.724 702.657 414.57 698.82 392.878C696.83 381.622 696.833 370.106 696.983 357.185L697.009 355.205C697.153 343.21 697.317 329.912 695.347 316.514C690.083 280.713 647.721 260.669 605.719 253.927C586.385 250.823 554.276 247.765 527.82 259.883C499.527 272.843 482.532 292.487 474.348 311.83C462.603 339.585 453.871 366.326 446.328 394.318C442.25 409.448 437.535 424.671 432.118 439.501C431.775 440.441 431.418 441.493 431.104 442.409L430.923 442.945C430.54 444.06 430.177 445.104 429.785 446.142C429.437 447.066 429.091 447.914 428.748 448.684L428.682 448.637C424.181 445.518 420.192 440.658 418.164 437.115C410.844 424.315 408.099 410.489 404.752 393.634C404.372 391.731 403.989 389.79 403.589 387.807C399.868 369.394 394.811 347.677 378.737 327.53C364.542 309.735 337.038 287.756 292.562 287.756C263.909 287.756 241.848 298.59 226.947 309.801C211.995 321.053 201.568 334.576 195.402 345.098C173.349 382.726 177.572 423.864 181.013 457.372L181.013 457.374C181.211 459.303 181.406 461.207 181.594 463.083C185.667 503.808 207.237 543.07 226.372 577.902L226.374 577.907C227.991 580.85 229.591 583.762 231.161 586.641L241.577 605.735L295.278 590.922L284.863 571.828C283.464 569.264 282.067 566.714 280.678 564.175C260.882 528.023 242.472 494.403 239.049 460.177L238.797 457.662C235.16 421.407 231.934 389.241 248.57 360.853C252.932 353.411 260.002 344.564 268.811 337.936C277.67 331.268 285.634 328.716 292.562 328.716C306.613 328.716 318.77 335.37 328.637 347.742C338.818 360.503 342.858 375.243 346.573 393.632C346.956 395.53 347.337 397.482 347.728 399.479C350.882 415.625 354.612 434.717 364.807 452.546C368.868 459.645 376.718 469.813 388.466 477.962C400.268 486.146 420.538 495.057 446.152 490.303C466.862 486.461 476.332 474.143 480.387 467.38C483.958 461.429 486.268 454.543 487.377 451.236C487.584 450.623 487.748 450.134 487.872 449.794C493.644 433.981 498.623 417.886 502.897 402.026C510.16 375.079 518.455 349.747 529.505 323.633C534.591 311.613 544.496 300.968 559.014 294.316Z" stroke="#4763E4" stroke-width="2" mask="url(#path-16-outside-1_322_5720)"/>
<path d="M949.238 186.602L948.913 187.152L949.525 187.336L976.073 195.275C1015.38 207.03 1050.66 225.224 1074.74 247.486C1098.83 269.748 1111.66 296.018 1106.28 323.973L1102.37 344.262L1102.26 344.801L1102.81 344.854L1159.87 350.415L1160.33 350.459L1160.41 350.012L1164.32 329.722C1172.41 287.771 1153.23 251.118 1120.95 221.661C1088.68 192.207 1043.26 169.89 998.691 156.56L972.143 148.621L971.769 148.509L971.57 148.845L949.238 186.602Z" stroke="#4763E4"/>
<path d="M1034.21 824.194C1033.77 823.931 1032.27 823.206 1028.48 822.461L1028.58 821.971L1028.48 822.461C1022.32 821.249 1014.28 820.894 1006.49 821.09C996.935 821.334 983.711 824.587 970.985 830.825C958.211 837.085 949.592 844.552 946.228 850.53C944.61 853.408 944.117 856.007 944.927 858.763C945.747 861.552 947.922 864.574 951.819 868.229C959.447 875.38 970.225 881.663 982.669 888.914C984.907 890.216 987.194 891.55 989.528 892.925L989.274 893.356L989.528 892.925C1009.38 904.63 1024.94 906.259 1038.59 904.391C1054.35 902.231 1072.06 894.769 1093.01 881.997C1105.19 874.575 1115.58 865.273 1122.93 855.307C1130.28 845.337 1134.55 834.734 1134.55 824.701C1134.55 811.982 1130.95 797.344 1123.52 784.358C1116.02 771.258 1105.58 761.437 1093.49 755.973C1053.4 737.866 1015.59 740.572 957.938 744.715L957.938 744.715L957.184 744.768L1034.21 824.194ZM1034.21 824.194L1046.89 842.224L1047.1 842.535L1047.46 842.408L1098.98 824.09L1099.6 823.87L1099.22 823.332L1086.34 805.014C1076.44 790.932 1058.03 784.754 1044.02 781.999C1029.7 779.185 1014.97 778.89 1004.41 779.157C980.781 779.757 956.959 786.84 937.859 796.198L938.062 796.613L937.859 796.198C918.81 805.536 900.823 818.923 891.877 834.827C885.162 846.763 884.605 857.855 887.696 867.792C890.781 877.709 897.488 886.439 905.239 893.708L905.581 893.344L905.239 893.708C917.507 905.211 934.629 915.109 946.753 922.119L946.754 922.119L946.76 922.123L946.78 922.135L947.122 922.333C948.966 923.399 950.689 924.395 952.26 925.322L952.514 924.891L952.26 925.322C983.698 943.853 1016.59 950.127 1049.62 945.602C1080.54 941.366 1107.75 928.133 1131.02 913.949C1164.72 893.407 1193.15 860.245 1193.15 824.701C1193.15 806.861 1188.24 786.773 1177.73 768.419C1167.3 750.178 1150.37 732.044 1124.78 720.485C1067.38 694.558 1010.98 698.67 958.285 702.512L958.235 702.516L953.653 702.85L953.652 702.85C952.945 702.902 952.238 702.952 951.533 703.003L951.323 703.018L951.323 703.018C894.949 707.067 845.602 720.326 801.462 747.302C766.324 768.775 733.681 791.696 715.759 827.922L706.2 847.24L705.925 847.797L706.527 847.947L760.861 861.542L761.252 861.64L761.431 861.279L770.989 841.96C783.574 816.525 806.256 799.549 839.524 779.219C873.41 758.512 911.055 748.082 957.183 744.768L1034.21 824.194ZM1034.5 823.914H1034.52L1034.42 824.037L1034.5 823.914ZM1034.43 823.914L1034.2 824.073C1034.2 824.069 1034.2 824.066 1034.2 824.062C1034.19 824.035 1034.18 823.982 1034.18 823.914H1034.43Z" stroke="#4763E4"/>
<path d="M177.753 650.121H178.253H207.053C277.297 650.121 327.888 679.975 357.303 718.905C368.847 734.183 376.919 751.324 383.829 767.639L383.829 767.639C386.12 773.054 388.267 778.318 390.366 783.475M177.753 650.121L389.903 783.663M177.753 650.121V650.621V691.581V692.081H178.253H207.053C250.342 692.081 283.714 709.711 305.765 738.894C314.341 750.242 321.032 763.97 327.756 779.842C329.656 784.327 331.584 789.056 333.566 793.921M177.753 650.121L334.054 793.795M390.366 783.475L389.903 783.663M390.366 783.475L390.366 783.475L389.903 783.663M390.366 783.475L390.371 783.486C394.874 794.535 399.175 805.088 404.309 815.585C419.203 846.044 437.331 867.409 470.433 877.549L496.883 885.651L497.497 885.839L497.164 886.388L474.378 924.006L474.176 924.339L473.804 924.225L447.354 916.123C390.732 898.779 365.3 862.803 349.004 829.478C343.347 817.906 338.327 805.599 333.62 794.051M389.903 783.663L389.911 783.682C394.412 794.726 398.719 805.292 403.86 815.805C418.789 846.336 437.005 867.832 470.287 878.027L496.244 885.978L496.309 885.87L496.737 886.129L496.59 886.607L496.469 886.57L473.95 923.746L447.5 915.645C391.058 898.355 365.714 862.511 349.453 829.258C343.8 817.695 338.783 805.393 334.071 793.834M333.62 794.051L333.63 794.068L333.635 794.079L334.071 793.834M333.62 794.051C333.616 794.042 333.612 794.032 333.608 794.022L333.609 794.022L333.599 794.003L333.591 793.983C333.583 793.963 333.574 793.942 333.566 793.921M333.62 794.051L333.566 793.954V793.921M334.071 793.834L333.984 793.869L333.887 793.909L334.054 793.823L334.062 793.819L334.066 793.817M334.071 793.834L334.066 793.823V793.819V793.817M334.066 793.817L334.054 793.795M334.066 793.817H334.01H333.999H333.566V793.819V793.823V793.921M334.054 793.795C332.064 788.908 330.126 784.155 328.216 779.647C321.489 763.767 314.778 749.992 306.164 738.593C284.015 709.28 250.493 691.581 207.053 691.581H178.753L334.054 793.795Z" stroke="#4763E4"/>
<path d="M409.49 200.474L409.49 200.473C409.709 199.911 409.844 199.439 409.924 199.06C378.475 175.965 351.897 158.884 314.452 152.256C285.767 147.179 264.592 144.505 245.814 149.124C228.215 153.454 216.331 161.91 205.701 174.554C200.249 181.039 195.386 188.325 190.291 196.507C188.848 198.824 187.35 201.275 185.806 203.802L185.787 203.833L185.785 203.835L185.782 203.841L185.781 203.842C182.149 209.788 178.264 216.144 174.265 222.116L174.265 222.116C170.978 227.023 169.708 230.285 169.491 232.475C169.415 233.244 169.455 233.873 169.668 234.484C169.877 235.084 170.266 235.704 170.948 236.433C171.074 236.508 171.291 236.629 171.62 236.784L171.62 236.785C172.586 237.243 174.028 237.769 175.817 238.205C177.599 238.636 179.293 238.871 180.638 238.945C181.464 238.991 181.939 238.966 182.091 238.956C188.275 237.7 199.191 232.413 208.937 226.111C208.938 226.11 208.94 226.109 208.942 226.108L209.213 226.527M409.49 200.474L357.056 215.518L356.146 215.025L355.908 215.464L356.146 215.025L356.108 215.004C353.411 213.542 349.954 211.667 346.569 210.058L346.569 210.058C333.799 203.992 316.056 196.528 296.514 193.416C275.608 190.087 250.864 191.608 229.898 205.382C221.974 210.586 216.924 216.826 214.119 220.292L214.115 220.296C214.071 220.351 214.027 220.406 213.984 220.459C213.882 220.585 213.783 220.706 213.688 220.823L213.687 220.824C212.047 222.842 211.083 224.01 210.133 225.002C209.707 225.446 209.399 225.73 209.201 225.899C209.103 225.984 209.032 226.04 208.988 226.073C208.966 226.09 208.951 226.101 208.943 226.106L208.938 226.11C208.938 226.11 208.938 226.11 209.213 226.527M409.49 200.474C408.857 202.11 407.7 204.039 406.095 205.974L406.48 206.293M409.49 200.474L409.956 200.654C409.3 202.352 408.11 204.327 406.48 206.293M209.213 226.527C209.213 226.527 209.623 226.257 210.494 225.348L180.61 239.444C181.529 239.495 182.032 239.461 182.155 239.452L182.157 239.452C188.432 238.189 199.437 232.85 209.213 226.527ZM406.48 206.293L406.095 205.974C404.483 207.92 402.789 209.423 401.535 210.323C393.806 215.865 380.658 220.314 369.208 221.252M406.48 206.293L369.208 221.252M369.208 221.252C368.587 221.073 367.246 220.63 365.021 219.608L365.021 219.607C362.688 218.538 360.219 217.23 357.056 215.518L369.208 221.252ZM131.636 187.75L131.634 187.753L131.629 187.76L131.623 187.771L131.621 187.774L131.611 187.791L131.609 187.794L131.607 187.798C128.18 193.408 124.978 198.651 121.431 203.947L121.842 204.222L121.431 203.947C116.909 210.699 112.069 219.595 111.038 229.501C110.004 239.438 112.808 250.341 123.473 261.059L123.824 260.709L123.473 261.059C132.248 269.877 145.581 275.174 156.974 277.939C168.452 280.725 183.139 282.205 197.125 279.515C217.829 275.533 237.767 264.02 248.239 257.249L247.98 256.848L248.239 257.249C256.068 252.186 261.104 245.949 263.827 242.577L263.831 242.572L263.831 242.572L264.105 242.231L264.107 242.23L264.333 241.951C267.743 237.754 268.781 236.798 269.533 236.303C271.258 235.17 272.996 234.406 275.197 234.062C277.408 233.717 280.112 233.791 283.77 234.374C292.433 235.753 302.824 239.644 314.146 245.022L314.146 245.022C315.897 245.853 317.835 246.902 320.826 248.521L321.003 248.617L321.691 248.989L321.691 248.989C324.822 250.683 328.91 252.883 333.347 254.923C341.57 258.7 355.696 264.211 373.068 263.143C398.172 261.598 424.994 252.903 443.019 239.973C452.652 233.068 461.652 222.803 465.949 211.729C468.065 206.277 469.422 199.372 468.032 192.191C466.639 184.997 462.497 177.571 453.695 171.084C421.625 147.449 384.526 121.434 328.537 111.524C301.626 106.76 264.068 100.262 226.744 109.444C191.844 118.03 170.476 135.077 155.497 152.892C148.145 161.637 142.114 170.82 136.775 179.393C134.97 182.292 133.277 185.063 131.636 187.75Z" stroke="#4763E4"/>
<path d="M452.969 684.003L452.725 683.728L452.39 683.879L403.706 705.77L403.085 706.049L403.538 706.558L418.931 723.868C451.303 760.269 490.82 782.916 542.292 802.987C567.053 812.643 596.176 812.881 619.373 808.805L647.332 803.896L647.911 803.794L647.718 803.24L633.908 763.474L633.769 763.071L633.349 763.145L605.387 768.056C592.157 770.38 578.897 769.476 570.353 766.141L570.173 766.602L570.353 766.141C525.04 748.472 494.051 730.2 468.359 701.31L452.969 684.003Z" stroke="#4763E4"/>
<path d="M72.4373 429.616L72.1934 429.342L71.8586 429.493L23.174 451.384L22.5529 451.663L23.0054 452.172L38.3969 469.482C50.5375 483.137 55.1241 497.033 60.7997 514.249L61.2746 514.093L60.7997 514.249L60.8394 514.37C62.0346 517.994 63.279 521.767 64.6524 525.712L65.1157 525.55L64.6524 525.712C68.6906 537.306 71.2714 547.141 71.0658 555.918C70.861 564.664 67.8886 572.384 60.7519 579.76L61.1113 580.108L60.7519 579.76L44.429 596.634L43.9506 597.128L44.5686 597.431L92.0241 620.645L92.3505 620.804L92.6031 620.543L108.926 603.672L108.59 603.347L108.926 603.672C124.073 588.014 129.279 571.853 129.657 556.65C130.034 541.47 125.595 527.272 121.508 515.536L121.035 515.701L121.508 515.536C120.508 512.665 119.518 509.603 118.478 506.382L118.471 506.36C112.861 488.995 105.8 467.138 87.8286 446.926L72.4373 429.616Z" stroke="#4763E4"/>
<path d="M556.305 128.566L556.305 128.565C557.279 128.25 558.243 127.937 559.194 127.63C565.927 125.451 572.221 123.446 578.455 121.673C590.996 118.106 601.852 115.909 612.073 115.482C632.716 114.618 650.422 117.925 675.537 123.201C701.507 128.658 723.19 135.411 746.746 145.137C758.271 149.896 772.93 155.705 788.498 159.396L815.817 165.872L816.213 165.965L816.385 165.597L834.602 126.74L834.863 126.183L834.264 126.041L806.942 119.564C797.557 117.339 787.399 113.477 776.051 108.791C748.674 97.4877 722.719 89.3823 692.063 82.9411C667.209 77.7193 640.594 72.2573 608.647 73.5934C589.448 74.3965 571.925 78.3757 556.792 82.6804C549.188 84.843 541.819 87.1986 535.025 89.3973C533.991 89.7318 532.974 90.0615 531.972 90.3868C526.202 92.2579 520.899 93.9774 515.618 95.5681L515.618 95.5682L489.101 103.558L488.488 103.743L488.816 104.293L511.289 142.007L511.489 142.342L511.863 142.23L538.379 134.24L538.247 133.803L538.379 134.24C544.45 132.41 550.569 130.426 556.305 128.566Z" stroke="#4763E4"/>
</g>
</svg>
